<?xml version="1.0" standalone="no"?>
<!DOCTYPE svg PUBLIC "-//W3C//DTD SVG 20010904//EN"
 "http://www.w3.org/TR/2001/REC-SVG-20010904/DTD/svg10.dtd">
<svg version="1.0" xmlns="http://www.w3.org/2000/svg"
 width="500.000000pt" height="500.000000pt" viewBox="0 0 500.000000 500.000000"
 preserveAspectRatio="xMidYMid meet">
<metadata>
Created by potrace 1.14, written by Peter Selinger 2001-2017
</metadata>
<g transform="translate(0.000000,500.000000) scale(0.100000,-0.100000)"
fill="#000000" stroke="none">
<path d="M1035 3800 c-8 -13 13 -40 31 -40 26 0 83 -70 101 -122 16 -48 18
-116 23 -673 l5 -620 22 -3 23 -3 2 615 3 615 334 -550 c307 -505 336 -550
359 -547 21 3 72 83 353 556 180 305 330 556 333 559 3 4 6 -107 6 -245 l0
-252 -140 0 c-120 0 -140 -2 -140 -16 0 -8 14 -27 31 -42 60 -50 63 -67 67
-394 l4 -298 333 0 c311 0 337 1 401 21 199 61 305 162 334 318 7 38 7 73 -1
115 -34 193 -188 275 -551 292 l-128 6 0 202 c1 208 14 326 44 383 17 34 66
78 96 88 11 3 20 15 20 26 0 18 -8 19 -147 19 l-148 0 -335 -564 c-184 -310
-336 -563 -337 -562 -1 1 -155 254 -342 562 l-339 559 -155 3 c-102 2 -158 -1
-162 -8z m1985 -772 c71 -17 132 -52 181 -105 60 -64 83 -132 83 -238 0 -163
-89 -279 -246 -321 -29 -7 -86 -14 -125 -14 l-73 0 0 351 0 351 68 -7 c37 -3
87 -11 112 -17z"/>
<path d="M937 2240 c3 -11 9 -18 13 -15 4 3 10 -1 13 -9 3 -8 18 -33 32 -57
19 -30 29 -38 35 -29 5 8 3 19 -3 25 -7 7 -24 33 -39 59 -28 47 -61 64 -51 26z"/>
<path d="M1095 2248 c-2 -7 -6 -50 -7 -96 -3 -68 0 -82 12 -82 13 0 15 13 12
74 -3 43 1 82 7 95 10 17 9 21 -4 21 -9 0 -18 -6 -20 -12z"/>
<path d="M1260 2245 c0 -8 6 -29 14 -47 8 -18 21 -49 30 -70 9 -20 16 -41 16
-47 0 -6 9 -11 20 -11 19 0 19 2 7 23 -8 12 -27 55 -43 94 -27 69 -44 91 -44
58z"/>
<path d="M1406 2244 c-6 -15 -4 -15 11 -3 10 7 20 15 22 16 2 2 -3 3 -11 3 -9
0 -19 -7 -22 -16z"/>
<path d="M1460 2165 c0 -78 3 -95 15 -95 12 0 15 17 15 95 0 78 -3 95 -15 95
-12 0 -15 -17 -15 -95z"/>
<path d="M1526 2246 c21 -15 30 -14 19 3 -3 6 -14 11 -23 11 -13 0 -13 -2 4
-14z"/>
<path d="M1600 2243 c0 -11 3 -14 8 -7 4 6 14 14 22 17 10 4 8 6 -7 6 -16 1
-23 -5 -23 -16z"/>
<path d="M1658 2165 c-2 -79 -1 -95 12 -95 12 0 15 17 15 95 0 66 -4 95 -12
95 -8 0 -13 -30 -15 -95z"/>
<path d="M1710 2253 c8 -3 18 -11 22 -17 5 -7 8 -4 8 7 0 11 -7 17 -22 16 -16
0 -18 -2 -8 -6z"/>
<path d="M1805 2165 c0 -78 3 -95 15 -95 12 0 15 17 15 95 0 78 -3 95 -15 95
-12 0 -15 -17 -15 -95z"/>
<path d="M1935 2165 c0 -78 3 -95 15 -95 12 0 15 17 15 95 0 78 -3 95 -15 95
-12 0 -15 -17 -15 -95z"/>
<path d="M2045 2165 c0 -78 3 -95 15 -95 12 0 15 17 15 95 0 78 -3 95 -15 95
-12 0 -15 -17 -15 -95z"/>
<path d="M2130 2253 c8 -3 21 -10 28 -16 8 -7 12 -5 12 7 0 11 -8 16 -27 15
-16 0 -22 -3 -13 -6z"/>
<path d="M2269 2165 c20 -52 39 -95 44 -95 13 0 8 24 -19 91 -14 35 -26 72
-27 82 -1 9 -9 17 -18 17 -14 0 -11 -14 20 -95z"/>
<path d="M2310 2256 c0 -2 11 -28 24 -57 14 -30 32 -72 41 -94 15 -35 18 -37
25 -20 4 11 4 22 1 25 -4 3 -13 21 -20 40 -30 78 -47 109 -58 110 -7 0 -13 -2
-13 -4z"/>
<path d="M2375 2250 c4 -6 11 -8 16 -5 14 9 11 15 -7 15 -8 0 -12 -5 -9 -10z"/>
<path d="M2450 2245 c0 -8 2 -15 4 -15 2 0 6 7 10 15 3 8 1 15 -4 15 -6 0 -10
-7 -10 -15z"/>
<path d="M2635 2165 c0 -78 3 -95 15 -95 13 0 14 16 12 95 -2 65 -7 95 -15 95
-8 0 -12 -29 -12 -95z"/>
<path d="M2710 2240 c11 -11 17 -26 14 -35 -4 -8 -1 -15 4 -15 21 0 25 43 6
57 -29 21 -47 16 -24 -7z"/>
<path d="M2845 2165 c0 -78 3 -95 15 -95 12 0 15 17 15 95 0 78 -3 95 -15 95
-12 0 -15 -17 -15 -95z"/>
<path d="M2956 2248 c26 -45 129 -168 132 -159 2 7 -2 20 -10 30 -69 97 -105
140 -116 141 -8 0 -10 -5 -6 -12z"/>
<path d="M3080 2251 c0 -6 5 -13 10 -16 6 -3 10 1 10 9 0 9 -4 16 -10 16 -5 0
-10 -4 -10 -9z"/>
<path d="M3290 2249 c13 -6 28 -15 32 -22 5 -8 8 -7 8 4 0 18 -20 29 -48 28
-11 0 -8 -4 8 -10z"/>
<path d="M3425 2165 c0 -78 3 -95 15 -95 12 0 15 17 15 95 0 78 -3 95 -15 95
-12 0 -15 -17 -15 -95z"/>
<path d="M3545 2165 c0 -78 3 -95 15 -95 12 0 15 17 15 95 0 78 -3 95 -15 95
-12 0 -15 -17 -15 -95z"/>
<path d="M3710 2253 c0 -22 76 -183 86 -183 15 0 -59 183 -75 188 -6 2 -11 0
-11 -5z"/>
<path d="M3877 2243 c4 -10 10 -20 14 -23 3 -3 20 -27 37 -53 17 -26 33 -44
36 -38 9 13 -63 131 -80 131 -9 0 -11 -6 -7 -17z"/>
<path d="M4035 2250 c-4 -6 -7 -49 -8 -95 -2 -70 1 -85 13 -85 12 0 15 17 15
95 0 89 -5 109 -20 85z"/>
<path d="M3201 2229 c-10 -11 -21 -33 -24 -47 -7 -34 15 -87 41 -101 37 -19
41 -12 11 18 -23 23 -29 38 -29 72 0 25 7 50 17 61 9 10 13 18 10 18 -3 0 -15
-9 -26 -21z"/>
<path d="M2724 2165 c29 -26 31 -37 16 -66 -7 -12 -7 -19 -1 -19 16 0 33 40
27 64 -3 13 -17 28 -31 34 -38 18 -41 15 -11 -13z"/>
<path d="M2135 2170 c3 -5 8 -10 11 -10 2 0 4 5 4 10 0 6 -5 10 -11 10 -5 0
-7 -4 -4 -10z"/>
<path d="M3324 2115 c0 -28 2 -32 13 -24 17 14 17 59 1 59 -8 0 -13 -14 -14
-35z"/>
<path d="M940 2090 c0 -11 4 -20 9 -20 5 0 7 9 4 20 -3 11 -7 20 -9 20 -2 0
-4 -9 -4 -20z"/>
<path d="M3877 2090 c-3 -12 0 -20 8 -20 8 0 11 8 8 20 -3 11 -7 20 -8 20 -1
0 -5 -9 -8 -20z"/>
<path d="M2150 2083 c-24 -12 -24 -13 -3 -13 12 0 25 5 28 11 11 16 2 17 -25
2z"/>
<path d="M2956 2085 c-3 -9 0 -15 9 -15 9 0 12 6 9 15 -4 8 -7 15 -9 15 -2 0
-5 -7 -9 -15z"/>
<path d="M1185 2080 c-3 -5 1 -10 10 -10 9 0 13 5 10 10 -3 6 -8 10 -10 10 -2
0 -7 -4 -10 -10z"/>
<path d="M3645 2080 c-3 -5 -1 -10 4 -10 6 0 11 5 11 10 0 6 -2 10 -4 10 -3 0
-8 -4 -11 -10z"/>
<path d="M2455 1948 c-2 -7 -6 -132 -7 -278 -4 -294 -11 -333 -69 -367 -16
-10 -29 -25 -29 -35 0 -17 17 -18 269 -18 319 0 487 12 613 44 263 67 433 218
483 428 17 73 19 175 5 213 l-10 26 -117 -3 c-99 -3 -117 -5 -114 -18 2 -8 6
-62 8 -120 11 -221 -68 -376 -231 -455 -99 -47 -179 -64 -336 -71 -153 -7
-195 0 -224 40 -20 26 -21 44 -26 324 l-5 297 -103 3 c-76 2 -103 -1 -107 -10z"/>
</g>
</svg>
